<svg id="Layer_1" enable-background="new 0 0 115 115" height="512" viewBox="0 0 115 115" width="512" xmlns="http://www.w3.org/2000/svg"><g id="_x39_8"><g><g><g><g><g><g><path d="m71.6882324 34.3848228c-.9260635.8452148-1.9921341 1.5231018-3.0582123 2.200985.0700073-.1598969.1401138-.3197937.210022-.4800606l-1.1438675-2.7490921c.5758286-.3655319 1.1361771-.7463074 1.6419983-1.2029381 1.4470596-1.2985249 1.6260986-2.5805149 1.346199-4.4019737-.249115-1.7276802-.7752609-2.6158867-3.3305435-3.2596455-1.2373428-.3119831-2.5446014-.5481091-3.7663651-.1903877-2.5962448.770834-3.6463814 3.8826675-1.9842491 6.0239849l-2.785778 1.020359c-1.2761841-1.637249-1.6730576-3.8988304-1.0272331-5.8636837.9717331-2.9564056 3.8169823-5.0877762 6.8935127-5.3502712 7.2247162-.6164245 13.3562775 8.4554902 7.0045166 14.2527237z" fill="#0126f0"/></g></g><g><g><path d="m70.3699493 30.245142c.2685547-.7897949.1914063-1.6469727.0673828-2.4555664-.2338409-1.6254711-.687439-2.4356098-3.1455078-3.0549316-1.1972656-.3022461-2.4677734-.5344238-3.6337929-.1928711-.1347656.0385742-.2714844-.0371094-.3105469-.1696777-.0380859-.1325684.0371094-.2714844.1699219-.3103027 1.2822304-.3747559 2.6298866-.1308594 3.8974648.1879883 2.6572266.6696548 3.2540359 1.6405354 3.5166016 3.4660645.1269531.8276367.2158203 1.7963867-.0888672 2.6904297-.1058731.3132036-.5802612.1517427-.4726563-.161133z" fill="#000002"/></g></g><g><g><path d="m75.9398804 81.6724548c-1.3508835-.6763992-2.6275864-1.0078659-3.2083054-1.5944443-.8517456-.8603363-1.0059433-2.2056732-.7188873-3.3701859.2870636-1.1645126.9480133-2.2009659 1.5644608-3.235878 3.8032379-6.385025 7.7656555-13.4312592 7.0805893-20.7914772-.2438049-2.6194267-.812706-5.1888885-1.8335648-7.6673431-3.9619598-9.6188393-14.5044479-15.8270245-25.0949211-16.1942692-9.7203102-.3370686-17.6180153 3.7034473-23.4038239 13.6024036-2.4484921 4.1891327-3.9730721 8.7137032-5.5749054 13.2513847-.4463406 1.2643929-.8611889 2.3892517-2.1442623 3.0163689-1.9002914.9287872-3.9520683.0939369-5.9016609.5570564-2.4154234.5737801-3.6305866 3.7105293-3.2489462 5.9858932.4960423 2.9574356 3.5712557 5.8268738 5.8270197 7.5354462 2.7054329 2.0491638 5.8036537 3.5059891 8.8786583 4.9422302 12.5233269 5.8492584 25.4896545 11.7127304 39.2985764 12.3137512 2.1970749.0956268 4.4870758.036171 6.4568481-.9416962 2.0129394-.9992826 5.2936172-5.7716596 2.0231247-7.4092405z" fill="#ffd028"/></g></g><g><g><g><path d="m17.9016132 39.1991119c.3967285.307373.7199707.5046387.9543457 1.0302734.4555569 1.0221558-.0365887 2.6440468-1.3068848 2.5500488-.1479492-.0107422-.2678223-.1484375-.3813477-.199707-.2409534-.1082993-.4301147.0105324-.3608398.0947266 1.2238636 1.5026436 2.8352337 2.7337532 3.6750488 3.1352539.1169434.0556641.3793945.0681152.4594727-.0471191.1630859-.2346191.0830078-.7316895-.0456543-.9238281-.1286621-.1923828-.2900391-.1162109-.3977051-.0559082s-.0795898.1938477-.1999512.236084c-.1203613.0424805-.1179199.1286621-.2944336.0388184-.1765137-.0895996-.5395508-.3862305-.6123047-.5947266-.0727539-.2087402-.1367188-.3156738-.1298828-.5244141.0068359-.2089844.1835938-.5566406.2307129-.7685547s.2143555-.6977539.2695313-.809082c.5453091-1.0987434.9087181-1.2770729 2.0285645-.6535645.6859322.3820801 1.7285423 1.4590111 2.3613281 2.8972168.2409668.546875.2775879 1.3898926.1870117 1.8059082-.2356415 1.0793839-.7438412 2.0341072-1.7478027 2.4831543-2.7833595 1.2444115-8.8154268-1.8637009-9.4780283-5.7819824-.1631126-.9638481.4512024-2.8604279 1.298584-3.4736328 1.5025768-1.0879479 2.9416189-.86409 3.4902353-.4389649z" fill="#ec5623"/></g></g><g><g><path d="m19.8621349 49.2959213c-2.7093182-.67733-4.7816334-2.1375771-6.0878906-3.9238281l-.0712891-.0976563c-.0820313-.111084-.0585938-.2675781.0527344-.3493652.1113281-.0803223.2685547-.0583496.3496094.0534668l.0722656.0981445c1.2533274 1.7077293 3.2267036 3.0896378 5.8056641 3.734375.3213711.0803452.1990833.5649071-.1210938.4848633z" fill="#000002"/></g></g><g><g><path d="m22.9980488 32.9820709c.1489258.0202637.2668457.1496582.3898926.2617188.6664486.6064453.9674549 1.787674.3549805 2.7700195-.0515137.0825195-.3085938.2436523-.2072754.3740234.1015625.1306152.5319824.5244141.6848145.675293.1530762.1508789.4123535.2556152.5795898.0632324.1669922-.192627.2053223-.6447754.5380859-.8032227.3327637-.1582031.6191406-.2822266.9929199-.0100098.3735352.2719727.6560059.6591797.842041 1.145752.4916801 1.2842979.3003025 2.5887337-.1254883 3.2285156-.2801476.4212952-.6263485 1.403698-2.1245117 1.2556152-.9509277-.0942383-2.6442871-.9904785-3.9067383-1.8620605-.7277832-.5024414-2.6269531-1.8735352-3.4489746-2.6655273-.4736328-.4560547-1.2087402-1.2312012-1.1010742-1.8352051.1794434-1.0063477.8225098-1.8012695 1.1179199-2.6645508.1557617-.4545898.4655762-.9743671.6132813-1.2541523.4505119-.8530369 1.0672398-1.2148991 1.8376465-.6403809.300293.2243652.4946289.6289063.5090332 1.102541.0144043.4736328-.2038574 1.0263672-.4453125 1.4658203-.0593262.1081543-.1936035.168457-.1694336.3183594s.3295898.427002.4865723.5412598.3962402.4060059.5432129.4675293c.630682.2633934.233387-.7034416.7438965-1.3144531.2963866-.3544922.753662-.6943359 1.2949218-.6201172z" fill="#03935e"/></g></g><g><g><path d="m23.5330334 41.7851791c-1.0390625-.5241699-1.5664063-.8037109-2.6054688-1.4685059-.9960938-.6379395-2.4443359-1.7531738-3.5214844-2.7124023-.2467022-.2187729.0840244-.5931969.3320313-.3735352 1.0439453.9287109 2.4980469 2.0495605 3.4589844 2.6647949 2.4468822 1.5656319 2.8738079 1.3743858 2.671875 1.7790527-.0439453.0871583-.2126446.1730768-.3359375.1105958z" fill="#000002"/></g></g><g><g><path d="m27.5026875 23.732069c.0087891.0061035.0019531-.0212402.0146484-.0095215.1889648.1779785.2365723.1904297.4382324.4475098s.465332.6999512.4580078 1.1140137-.5407715.7702637-.6450195 1.1303711c-.1040039.3603516-.8410645.4924316-.5412598 1.0588379.4954147.9355602 3.1894226 2.1166573 4.5351563 4.8225117.296629.5966797.3205547 1.2600098-.0256348 1.6472168-.5612793.6281738-1.0810547.8508301-1.8132324.7470703-.7321777-.1035156-1.2089844-.6594238-1.7490234-1.0646973-.3330078-.5078125-.6838379-.7028809-1.1743164-1.2028809-.2790527-.2841797-.9729004-.9936543-1.3425293-1.36133-.369873-.3679199-.7172852-.880127-1.043457-1.223877-.0456543-.0480957-.0314941.1220703-.1789551.2387695-.1474609.1169434-.4663086.5419922-.7651367.6879883-1.2197762.5959358-1.9229927.185215-2.2270508-.1696777-.3911133-.4567871-.6499023-.9526367-.369873-1.8498535.2797852-.8972168.885498-2.1691895 1.704834-3.0231934.9927235-1.0344162 1.4711742-1.526907 3.1789551-2.1706543.4853514-.1828613 1.093994-.1369629 1.5456542.1813965z" fill="#0126f0"/></g></g><g><g><path d="m31.9949474 33.7561264c-.1357422 0-.2470703-.1086426-.25-.244873l-.0029297-.1574707c-.023819-1.9185257-2.923151-4.0831051-3.0625-4.2299786-.1044922-.0893555-.1181641-.2470703-.0283203-.3522949.0898438-.105957.2470703-.1171875.3525391-.0290527.1650276.1744251 3.2134075 2.437973 3.2382793 4.6044903l.0029297.1540527c.0029297.1381836-.1064453.2521973-.2451153.255127-.0019531-.0000001-.0029296-.0000001-.0048828-.0000001z" fill="#000002"/></g></g><g><g><path d="m40.0129395 15.8382702c.0097656.0083008.0039063-.0280762.0114746-.0144043.2575684.4755859.5307617.9179688.7570801 1.4260254.8901367 1.9992676 1.5112305 4.0864258 1.8310547 6.236084.0830078.5578613.0166016 1.0854492-.1008301 1.5593262-.2500877 1.0091934-.7337875 1.3609085-1.5253906 1.736084-1.7393227.8252468-3.2574921.7495403-4.8774414-.5205078-.744873-.5839844-1.3474121-1.3842773-1.9240723-2.1970215-.8666992-1.2219238-1.7019043-2.5742188-2.1879864-4.0068359-.1499023-.4421387-.0559082-.8461914.077879-1.2587891.5257034-1.6212292 2.2288666-1.5755463 2.7709961-1.0966797 1.1193085.9888039 1.9559593 5.6847172 3.3918457 5.4040527.2263184-.0441895.4677734-.0996094.5266113-.4309082.1956215-1.097744-.4703293-1.4437695-1.4333496-3.4631348-.229248-.4807129-.5439453-1.2858887-.6157227-1.4785156-.2033691-.5449219-.3947754-.9985352-.3918457-1.322998.0065918-.6911621.2844238-1.0949707.791748-1.3498535s.9240723-.1853027 1.4558105-.0629883c.5317384.1220702 1.0263673.4819335 1.4421388.8410644z" fill="#ec5623"/></g></g><g><g><path d="m36.9217033 22.4614506c-.0628738-.1289864-.2333794-.2522373-.9677734-2.0808105l-.1611328-.3962402c-.1235886-.306057.3360291-.4933376.4638672-.1865234l.1621094.3986816c.6921539 1.7252083.87743 1.9028072.9296875 2.0043945.2241096.3667831.4329872.716898.8583984.6591797.1884766-.0249023.2763672-.0927734.3242188-.2504883.0644531-.2109375-.0283203-.7106934-.1484375-.9836426-.1332169-.30266.3222008-.5038662.4570313-.2016602.3678932.8336239.3399582 1.8116131-.5673828 1.9313965-.6622735.0872993-1.0032846-.3272553-1.3505861-.8942871z" fill="#000002"/></g></g><g><g><path d="m49.1315918 13.7157116c.6577644.7596731 1.2709503 1.4493828 1.4902344 2.4506836.6188278 2.8224716-.9714317 3.7211647-3.1132813 4.4980469.1344452.5869713.6088753 1.3006172.7192383 1.6242676.1049805.3076172.1599121.8300781.1066895 1.1491699-.0529785.3188477-.135498.4294434-.3874512.6237793-.251709.1943359-.4555664.3168945-.8562012.3847656-1.1269188.1901073-1.7767525-.321619-2.3625488-1.2746582-.5488281-.8925781-1.1162109-1.8076172-1.5600586-2.8173828-.8239098-1.8744183-2.0783577-4.2351418-2.0761719-5.5324707.0007324-.4348145.2114258-.9592285.5612793-1.1508789 2.6061859-1.4272165 5.0477486-1.7058773 7.4633789.0427246.0107422.0078125.0102539-.0031739.0148926.0019531zm-2.3049316 3.0944824c.0185547-.2456055.064209-.4526367-.0400391-.704834-.2648926-.6396484-.817627-.7390137-1.4692383-.6806641.1189842.483573.2886353 1.1670113.5192871 1.6101074.1296387.2492676.276123.7209473.4331055.9047852.0407715.0478516.1450195-.2595215.2316895-.3815918.0869141-.1223145.2775879-.5466309.3027344-.7514648.0017089-.013916.0214843.0180664.0224609.0036621z" fill="#0126f0"/></g></g><g><g><path d="m46.690258 24.7336674c-1.4856415 0-1.9562225-1.1288338-2.4912109-1.9384766-.1367188-.2075195-.2714844-.4118652-.3964844-.6437988-.1572342-.2915936.2827911-.5284195.4394531-.2373047.1181641.2180176.2451172.4104004.3740234.6057129.3858299.581192.6726189 1.2274837 1.2558594 1.5256348.4589844.2355957.9355469.1994629 1.1806641.15625.3129539-.0551529.4108963-.1220741.7880859-.354248.2811394-.1706905.5417023.2593327.2558594.4291992-.3754425.2317275-.6941604.4570312-1.40625.4570312z" fill="#000002"/></g></g><g><g><path d="m56.0783691 22.0250378c.0224609.3676758.1552734.5371094-.0449219.9768066-.1999512.4399414-.9528809.7856445-1.5444336.7683105-.1296387-.0039063-.3632813.0737305-.5212402-.005127-.6848145-.3422852-1.1860352-.7961426-1.4438477-1.5773926-.0476074-.1437988-.1538086-.3547363-.1499023-.5957031.010498-.623291.5695801-1.2050781 1.1804199-1.2978516.4528809-.0688477.7790527.0354004 1.1887207.097168.7248421.1097852 1.2980042 1.0185319 1.3352051 1.6337892zm-1.2185058-10.0551758c.2473145.3342285.4228516.625.484375 1.0668945.0615234.4421387.0373535 1.0756836-.0327148 1.5197754-.0703125.4438477-.0078125 1.2497559-.0046387 1.5600586.0376549 3.5997467.5233879 3.2516346-.7561035 3.7331543-.1118164.0419922-.3330078.1049805-.4812012.0986328-.4880371-.020752-.894043-.041748-1.3017578-.4094238-.7342415-.6621361-.8025856-1.9711285-.9431152-2.5075684-.3187294-1.2137794-1.4458389-4.1655855-1.0566406-5.0405273.2466965-.5608501.3430672-.8150501 1.1647949-.8293457.3505859-.0063477 1.0078125.0236816 1.4807129.1157227.7021217.1366538 1.3370704.5428428 1.446289.6926269z" fill="#03935e"/></g></g><g><g><path d="m55.0681877 14.5381098c.1472015-1.7460518-.0612831-1.9366484-.3515625-2.3408203-.1492996-.0891647-.3026924-.4215002-1.3769531-.6872559-.1337891-.0332031-.2148438-.1687012-.1816406-.3027344.0322266-.1337891.1621094-.2155762.3027344-.1826172.496273.123065 1.3376312.444253 1.5986328.7944336.676609.9115715.6116676 1.5459957.5068359 2.7609863-.0273857.3323641-.5261765.2885485-.4980469-.0419921z" fill="#000002"/></g></g></g><g><g><g><path d="m99.9099121 98.2243347c-1.7081223 3.6761551-7.3212204 7.9928131-19.9656448 4.4231567-3.3404541-.9458542-5.9946136-3.507843-8.5722427-5.8419342-1.3573303-1.2348175-2.6692352-2.5619888-3.5538254-4.1788712-.8693314-1.6019897-1.2506485-3.5540161-.7017593-5.3079376.564537-1.7390213 2.1050797-3.584549 5.3079376-3.6761551-2.913147-7.6412811-6.8484802-12.2632904-8.9684525-14.3679962-4.5910988-4.560936-.4118538-7.6412849 6.1011124-3.6605148 2.6234283 1.6012421 4.606369 4.3620834 6.2536011 7.1072845.1677551-.1370392.3479538-.2790604.5338058-.3813171 3.0945587-1.7026749 5.4261017.1085587 5.639473.215065.2441025-.2748184 1.4653168-1.8207474 3.6952209-1.3888168 1.5891266.3078156 3.0612488 1.6048203 4.3470001 2.821167 1.0734024-1.3870163 3.6370239-1.6724777 6.0553131.976387 1.1592255 1.2504578 9.6093216 10.844513 3.8284607 23.2604828z" fill="#f5a8c8"/></g></g><g><g><path d="m68.0965118 75.5273666c-1.8544922-2.911377-3.6435547-4.9106445-4.8164101-6.0751953-3.405941-3.383728-2.1152267-5.9993973 1.057621-5.9216309.2940521.0078201.358963.4708176-.0136719.5-2.7109375-.0796356-3.7615128 2.0171356-.6923866 5.0668945 1.1923866 1.1821289 3.0068398 3.2109375 4.8867226 6.161377.1780472.2793732-.2439498.5472565-.421875.2685547z" fill="#000002"/></g></g><g><g><path d="m73.4275665 86.7490463c-.1064453 0-.2050781-.0681152-.2382813-.1748047-.3066406-.9714355-.6396484-1.9287109-.9912109-2.8452148-.0498047-.1289063.0146484-.2734375.1435547-.3227539.1347656-.0507813.2734375.0153809.3232422.144043.3544922.9257813.6914063 1.8925781 1.0009766 2.8735352.0419922.1315918-.03125.2719727-.1630859.3137207-.0253907.0078124-.0507813.0114745-.0751954.0114745z" fill="#000002"/></g></g><g><g><path d="m91.7508087 76.3987045c-.5683594-.7932129-1.2089844-1.5429688-1.9052734-2.2285156-.0976563-.0966797-.0996094-.255127-.0019531-.3535156.0966797-.0983887.2548828-.0993652.3535156-.0024414.7158203.7053223 1.375 1.4768066 1.9599609 2.293457.1938858.2713242-.2150116.5577927-.40625.2910156z" fill="#000002"/></g></g><g><g><path d="m83.5330353 74.8633041c-.5224609-.7004395-1.0996094-1.3625488-1.7148438-1.9672852-.0976563-.0969238-.0996094-.255127-.0029297-.3535156.0986328-.098877.2558594-.0993652.3544922-.0029297.6328125.6225586 1.2255859 1.3039551 1.7636719 2.0249023.0830078.1105957.0595703.267334-.0507813.3498535-.1104354.0822221-.2673416.0600435-.3496093-.0510253z" fill="#000002"/></g></g><g><g><path d="m77.7215118 75.7014389c-1.0595703-1.6655273-2.0859375-2.8005371-2.0957031-2.8117676-.09375-.1022949-.0859375-.2602539.0166016-.3532715.1005859-.0930176.2597656-.0854492.3525391.0168457.0429688.0473633 1.0664063 1.1782227 2.1484375 2.880127.0742188.1164551.0400391.2709961-.0771484.3449707-.1143952.0735397-.2696687.0406647-.3447267-.0769043z" fill="#000002"/></g></g></g><g><g><path d="m68.6335449 83.7313385c.0400391.9299316-.8398438 1.7197266-1.8198242 1.9897461-.9799805.2602539-2.0400391.1101074-3.0400391-.0498047-15.3327141-2.447052-29.8206635-8.2652206-41.6799316-16.2700195-1.2299805-.8300781-3.4001465-1.9301758-2.8400879-3.5800781.6799316-2.0300293 3.5600586-1.4499512 5.1799316-.9899902 5.1801758 1.4799805 10.3000469 3.1398926 15.340086 4.9699707 1.6999512.6101074 3.3798828 1.2399902 5.0500488 1.8999023 7.3798828 2.8701172 14.5900879 6.1101074 21.579834 9.7102051 1.0300313.5300292 2.1901875 1.2499999 2.2299824 2.3200683z" fill="#ec5623"/></g></g><g><g><path d="m62.4646721 75.2151108c-12.0410156-8.1574707-24.8759766-13.2346191-39.2382813-15.5212402-.6474342-.1032639-.5045166-1.0891342.1582031-.987793 14.5097637 2.3105469 27.4765606 7.4396973 39.640625 15.6809082.2285156.1550293.2880859.4658203.1337891.6945801-.1551475.2288055-.4658737.2880172-.6943359.1335449z" fill="#000002"/></g></g><g><g><path d="m47.173584 82.3412018c-.2797852 2.5900879-2.369873 4.7900391-4.8598633 5.5900879-2.4799805.7897949-5.2600098.3000488-7.5600586-.9301758-1.8999023-1.0197754-3.5600567-2.5898438-4.4099102-4.5698242-1.3139782-3.0657578-.0024204-6.3036423 2.709959-7.6999512 1.5100098-.7900391 3.3498535-.9101563 4.9499512-.3300781.5900879-1.5400391 1.1799316-3.0700684 1.7700195-4.6000977 1.6999512.6101074 3.3798828 1.2399902 5.0500488 1.8999023-.6000977 1.6000977-1.0900879 3.3300781-1.7700195 4.8400879 2.6342507.4504471 4.4294854 3.3256836 4.1198731 5.8000489z" fill="#0126f0"/></g></g></g><g opacity=".37"><g><g><path d="m34.9100304 82.6215439c.2770119.3071976.5540237.6143875.8310356.9215851.556282.6168976 1.3514748-.0630646 1.25354-.7297058-.0517998-.3526001-.1035995-.7051926-.1553993-1.0577927-.3672485.2823257-.7344971.5646591-1.1017494.8469849.5878296.4207535 1.1756592.8414993 1.7634926 1.2622528.4695473.3360901 1.1382523-.1153717 1.1285362-.6475983-.0088577-.485321-.0177155-.9706421-.0265732-1.4559555-.3761787.2158661-.7523613.4317322-1.12854.6476059.5486298.3547974 1.0972633.7096024 1.6458931 1.0644073.53442.3456116 1.3122902-.2315292 1.1017494-.8469849-.1208-.3531113-.2415962-.7062302-.3623962-1.0593414-.3672485.2823257-.7345009.5646591-1.1017494.8469849.4902077.3304977.9804153.6609955 1.470623.9914932.8025742.5410995 1.5541191-.7578354.7570801-1.2952042-.4902077-.3304977-.9804153-.6609955-1.470623-.9914932-.5318222-.3585587-1.3096428.2392807-1.1017494.8469772.1208.3531189.2415962.7062302.3623962 1.0593491.3672485-.2823334.7344971-.5646591 1.1017494-.8469849-.5486336-.354805-1.0972633-.70961-1.6458931-1.064415-.47789-.3090515-1.1386223.095314-1.12854.6476059.0088577.4853134.0177155.9706345.0265732 1.4559555.3761826-.2158737.7523613-.4317398 1.12854-.6476059-.5878296-.4207535-1.1756592-.841507-1.7634888-1.2622528-.598793-.4286041-1.1853218.2780991-1.1017494.8469772.0517998.3526001.1035995.7051926.1553993 1.0577927.4178467-.2432404.8356934-.4864731 1.25354-.7297134-.2770119-.3071899-.5540276-.6143875-.8310394-.9215851-.6478424-.7184371-1.7059365.34507-1.0606575 1.0606614z" fill="#fff"/></g></g></g></g><g><path d="m23.6121349 83.6638412c-.0390625-.2731934.1513672-.5266113.4248047-.5654297l3.5-.4992676c.2675781-.0371094.5253906.1508789.5654297.4245605.0390625.2734375-.1513672.5266113-.4248047.5656738l-3.5.4987793c-.2699871.0393755-.5255451-.1488951-.5654297-.4243163z" fill="#000002"/></g><g><path d="m25.9304943 88.6230698c-.2128906-.1760254-.2431641-.4912109-.0673828-.7041016l1.6582031-2.0068359c.1777344-.2131348.4931641-.2419434.7041016-.0668945.2128906.1760254.2431641.4912109.0673828.7041016l-1.6582031 2.0068359c-.179533.2156143-.4948368.240364-.7041016.0668945z" fill="#000002"/></g></g><g><path d="m82.9334259 46.5915756c-.2636719 0-.4833984-.2050781-.4990234-.4709473-.1435547-2.4580078-1.0966797-4.8476563-2.6835938-6.7287598-.1787109-.2111816-.1513672-.5266113.0595703-.7045898.2109375-.1774902.5273438-.1523438.7041016.0595703 1.7255859 2.045166 2.7617188 4.6433105 2.9179688 7.3156738.0166016.2756348-.1943359.512207-.4697266.5283203-.0097656.0004884-.0195313.0007325-.0292969.0007325z" fill="#0126f0"/></g><g><path d="m87.3523712 47.2558823c-.0039063 0-.0078125 0-.0117188-.0002441-.2763672-.0063477-.4941406-.2353516-.4882813-.5114746.109375-4.6853027-1.8183594-9.4470215-5.15625-12.737793-.1972656-.1938477-.1992188-.510498-.0058594-.7072754.1953125-.1967773.5117188-.1984863.7070313-.005127 3.53125 3.480957 5.5712891 8.5178223 5.4550781 13.4736328-.0068358.2719727-.2294921.4882813-.4999999.4882813z" fill="#0126f0"/></g><g><path d="m92.6961212 47.2578354s0 0-.0009766 0c-.2753906-.0002441-.4990234-.2243652-.4990234-.5004883.0087891-7.15625-3.1298828-14.3212891-8.3955078-19.1667461-.203125-.1870117-.2158203-.5031738-.0292969-.706543.1875-.203125.5039063-.2158203.7070313-.0292969 5.4677734 5.0317383 8.7265625 12.4724102 8.7177734 19.9035625 0 .2761231-.2246094.4995118-.5.4995118z" fill="#0126f0"/></g></g><g opacity=".4"><g><path d="m43.7535057 40.0290642c-.1377411.5567398-.275486 1.1134796-.4132271 1.6702194-.4732056.0803757-.9464111.1607513-1.4196205.241127 1.1008148-.0331955 2.164032.1042213 3.0945358-.6515121.4354439-.3536606.8477135-.9394264 1.0410461-1.4539452.0564499-.2456741.1129036-.4913483.1693535-.7370224.0683403-.4480286.0509224-.4627762-.0522423-.0442467-.3721085.3031845-.7442169.606369-1.1163254.9095535.1317863-.0606461.2635765-.1212959.3953629-.181942-.4732094.0803757-.9464149.1607513-1.4196205.241127.0322571.0046997.064518.0094032.0967751.0141029-.3988838-.2869492-.7977715-.5738983-1.1966553-.8608513.0979309.1070328.1958656.2140617.2937965.3210907 1.7445564 1.9066048 4.5430412.9078178 4.9968834-1.5236816-.6909485.2425041-1.381897.4850082-2.0728455.7275162 1.3140411 1.5097389 4.1867409 1.3536224 4.8275261-.7866554.0359612-.1201057.0719185-.2402115.1078758-.3603134-.2869492.3988838-.5738983.7977676-.8608475 1.1966553.0195389-.0026436.0390739-.0052872.0586128-.0079308-1.6345901.2776451-1.3406105.2406044-1.7242928.2431641 2.3464355 2.7729797 6.7235603-.7831764 4.3766785-3.5566826-1.0097542-1.1933098-2.282547-2.1723328-3.9278984-2.0478592-1.5263939.1154709-2.860424 1.0529747-3.308506 2.5495949 1.6091766-.2622185 3.2183533-.524437 4.8275299-.7866554-2.7386971-3.1465702-7.1885719-1.6037674-7.9209213 2.3198471 1.6656303-.5078926 3.3312569-1.015789 4.9968872-1.5236816-1.2202721-1.333622-2.9362144-1.9958611-4.6785851-1.2026443-1.6307449.7423935-2.141716 2.1998138-2.3162766 3.8511734.1757545-.4677353.3515053-.9354706.5272598-1.4032021-.0600662.085762-.1201324.171524-.1801987.2572861.601841-.3738403 1.2036819-.7476807 1.8055267-1.121521-.362587.0743408-1.2080879.0388832-1.7507362.2432785-2.4025688.9049454-3.3789711 3.2685471-2.3916817 5.7945328 1.3238071 3.3869819 6.4531978 1.0431441 5.1348308-2.3299218z" fill="#fff"/></g></g><g opacity=".4"><g><path d="m84.4956436 97.6275635c.3053436-.1842194.6106873-.3684464.9160309-.5526657.2433929.1727142.4867859.3454361.7301788.5181503-.4985886-.4693985-.9056396-.9972839-1.6470261-1.0741272-.3469467-.0359573-.7857513.0403214-1.0969772.1815414-.4514694.2827606-.7879944.5295792-.394989.2920074.2969055.030304.593811.0606079.8907166.0909119-.0846024-.0312729-.1692123-.0625534-.2538223-.0938339.2433929.1727219.4867859.3454361.7301865.5181503-.0121231-.0162506-.0242386-.0325012-.0363541-.0487518.0492172.3015442.0984344.6030884.147644.9046249.0039978-.0901108.0080032-.1802292.012001-.2703476.0712509-1.6053085-1.5983047-2.3965836-2.8669052-1.5270615.4104156.1971664.8208313.3943329 1.2312393.5914993.0860443-1.2415314-1.245636-2.435936-2.4683914-1.7766495-.0686188.0369949-.1372375.0739899-.2058487.1109848.3015366-.0492096.6030807-.0984268.9046249-.147644-.009758-.0074234-.0195084-.0148544-.0292587-.0222855.8407516.596611.6952133.4836426.865036.6512146.1875381-2.2508621-3.300499-2.6118164-3.4880676-.3605347-.0807114.9686279.0484543 1.9586868.8265915 2.6273727.7218857.6203384 1.7206116.7946854 2.5756378.3336716-.8227921-.5922241-1.6455917-1.1844406-2.4683914-1.7766571-.1793289 2.5875778 2.4554749 3.8657379 4.5025711 2.4626312-.9556351-.5090256-1.9112701-1.0180435-2.8669052-1.5270691-.0498352 1.1228714.4134445 2.1684875 1.5282669 2.5858078 1.0434036.3905792 1.908844-.0255432 2.711647-.6748505-.2829208.1283722-.5658417.256752-.8487625.3851242.0641174-.0112991.1282272-.0225906.1923447-.0338898-.428978-.1002502-.8579559-.2004929-1.2869339-.3007355.1921005.1267319.5482559.514061.876709.6627808.4604492.2084885.9401016.3161087 1.4516754.2454529 1.0290451-.1421127 1.742363-.8163986 2.1475677-1.7415848.9071198-2.0711972-2.3786468-3.2959287-3.2820358-1.2332379z" fill="#fff"/></g></g></g></svg>