<svg id="Layer_1" enable-background="new 0 0 1417.3 1417.3" height="512" viewBox="0 0 1417.3 1417.3" width="512" xmlns="http://www.w3.org/2000/svg" xmlns:xlink="http://www.w3.org/1999/xlink"><linearGradient id="SVGID_1_" gradientUnits="userSpaceOnUse" x1="155.88" x2="1261.443" y1="708.661" y2="708.661"><stop offset="0" stop-color="#ebebec"/><stop offset="1" stop-color="#fbfcfc"/></linearGradient><g><path d="m759 1330.2c.4-26.1 4.3-86.3 30.1-142.8-6.1-6.9-12.4-15.2-18-25.1-26.8 48-92.3 59.7-133.8 21-64.4-60-65-124.7-62.6-167-36.5-8.2-68.2-33.8-80.4-72-21.4-6.9-38.7-21.7-49.4-41.3-83.3-31.1-171.6-102.2-228.2-195.1-178.4-292.9 68.5-554.6 315-489.5 25.9-91.2 87.9-159.5 168.5-193.8 237.2-101 513 123.2 386.4 427.2 125.4 57.6 197.7 195.3 168.4 334.6-32.7 155.1-153.7 282.3-277.1 331.3-3.9 7.3-8.3 13.1-12.3 17.5 15.4 39 7.6 79.1-15.1 114.9-13 20.5-19.1 56.1-19.4 82.3-.3 24.6-11 48-29.5 64-55.1 47.6-143.6 9.2-142.6-66.2z" fill="url(#SVGID_1_)"/><g><g><path d="m828.2 1195.5c-.4 0-.7-.1-1.1-.2-1.3-.6-1.9-2.1-1.3-3.4l4.9-10.6-7.7-8.8c-.9-1.1-.8-2.7.2-3.6 1.1-.9 2.7-.8 3.6.2l8.8 10c.7.8.8 1.8.4 2.8l-5.6 12.1c-.3.9-1.2 1.5-2.2 1.5z" fill="#cfcfce"/></g><g><path d="m806.6 1150.4c-.8 0-1.7-.4-2.2-1.2-.9-1.4-1.8-2.9-2.6-4.3l-12.1-21.3c-.7-1.2-.3-2.8 1-3.5 1.2-.7 2.8-.3 3.5 1l12.1 21.3c.8 1.4 1.6 2.8 2.5 4.1.8 1.2.4 2.8-.8 3.5-.4.3-.9.4-1.4.4z" fill="#cfcfce"/></g><g><path d="m764.4 1099.4c-.4 0-.9-.1-1.2-.3-1.2-.7-1.7-2.3-1-3.5l6.5-11.6c.5-.8 1.3-1.3 2.2-1.3.9 0 1.8.5 2.2 1.3l6.6 11.6c.7 1.2.3 2.8-1 3.5-1.2.7-2.8.3-3.5-1l-4.3-7.6-4.3 7.7c-.4.7-1.3 1.2-2.2 1.2z" fill="#cfcfce"/></g><g><path d="m695.7 1171.2c-2.8 0-5.7-.2-8.4-.7-1.4-.2-2.3-1.6-2.1-3s1.6-2.3 3-2.1c2.5.4 5 .6 7.6.6 6.5 0 12.8-1.3 18.7-4 1.3-.6 2.8 0 3.4 1.3s0 2.8-1.3 3.4c-6.7 3-13.7 4.5-20.9 4.5zm-32.9-13.3c-.6 0-1.3-.2-1.8-.7-7.3-6.8-13.8-13.9-19.5-21.1-.9-1.1-.7-2.7.4-3.6s2.7-.7 3.6.4c5.5 7 11.9 13.9 18.9 20.5 1 1 1.1 2.6.1 3.6-.3.6-1 .9-1.7.9zm73.9-9c-.5 0-1-.1-1.4-.4-1.2-.8-1.5-2.4-.8-3.5.5-.8.9-1.5 1.4-2.3l12.4-22.3c.7-1.2 2.3-1.7 3.5-1s1.7 2.3 1 3.5l-12.4 22.3c-.5.9-1 1.8-1.6 2.6-.4.6-1.3 1.1-2.1 1.1zm-108.4-35.6c-.9 0-1.8-.5-2.3-1.4-4.4-8.5-8-17.5-10.6-26.8-.4-1.4.4-2.8 1.8-3.2s2.8.4 3.2 1.8c2.5 8.9 5.9 17.6 10.2 25.9.6 1.3.2 2.8-1.1 3.5-.4.1-.8.2-1.2.2zm-15.5-54.2c-1.3 0-2.4-1-2.6-2.3-.6-6.1-.8-12.4-.8-19.3 0-3 .1-6.1.2-9.4 0-1.4 1.2-2.5 2.6-2.5s2.5 1.2 2.5 2.6c-.1 3.3-.2 6.3-.2 9.2 0 6.7.3 12.8.8 18.8.1 1.4-.9 2.7-2.3 2.8-.1.1-.1.1-.2.1z" fill="#cfcfce"/></g><g><path d="m613.6 1002.4h-.1c-1.4-.1-2.5-1.3-2.4-2.7l.6-11.2-10.9-2.5c-1.4-.3-2.3-1.7-1.9-3.1.3-1.4 1.7-2.3 3.1-1.9l13 2.9c1.2.3 2.1 1.4 2 2.6l-.7 13.3c-.2 1.5-1.4 2.6-2.7 2.6z" fill="#cfcfce"/></g><g><path d="m569.7 977.7c-.3 0-.7-.1-1-.2-10.6-4.5-20-11.3-27.2-19.8-.9-1.1-.8-2.7.3-3.6s2.7-.8 3.6.3c6.7 7.8 15.5 14.2 25.4 18.4 1.3.6 1.9 2.1 1.4 3.4-.6.9-1.5 1.5-2.5 1.5z" fill="#cfcfce"/></g><g><path d="m528.5 929.6c-1.1 0-2.1-.7-2.4-1.8l-3.7-11.5-11.4-3.7c-1.3-.4-2.1-1.9-1.6-3.2.4-1.3 1.9-2.1 3.2-1.6l12.7 4.1c.8.3 1.4.9 1.7 1.7l4.1 12.7c.4 1.4-.3 2.8-1.7 3.2-.3.1-.6.1-.9.1z" fill="#cfcfce"/></g><g><path d="m488.3 900.5c-.6 0-1.2-.2-1.7-.7-4.2-3.9-7.8-8.5-10.6-13.8l-4.9-8.9c-.7-1.2-.2-2.8 1-3.5s2.8-.2 3.5 1l4.9 8.9c2.6 4.8 5.9 9 9.6 12.5 1 1 1.1 2.6.1 3.6-.6.7-1.3.9-1.9.9zm-38.3-33.5c-.3 0-.6-.1-1-.2-8.1-3.3-16.4-7.1-24.6-11.2-1.3-.6-1.8-2.2-1.1-3.4.6-1.3 2.2-1.8 3.4-1.1 8.1 4.1 16.2 7.8 24.2 11 1.3.5 1.9 2 1.4 3.3-.4 1-1.3 1.6-2.3 1.6zm-47.9-24.1c-.4 0-.9-.1-1.3-.4-7.6-4.5-15.2-9.4-22.7-14.6-1.2-.8-1.5-2.4-.7-3.6s2.4-1.5 3.6-.7c7.4 5.1 14.9 9.9 22.4 14.4 1.2.7 1.6 2.3.9 3.5-.5 1-1.3 1.4-2.2 1.4zm-44.1-30.3c-.6 0-1.1-.2-1.6-.5-7-5.5-14-11.3-20.7-17.2-1.1-.9-1.2-2.6-.2-3.6.9-1.1 2.6-1.2 3.6-.2 6.7 5.9 13.6 11.6 20.5 17 1.1.9 1.3 2.5.4 3.6-.5.5-1.3.9-2 .9zm-40.2-35.4c-.7 0-1.3-.2-1.8-.7-6.4-6.3-12.6-12.8-18.6-19.5-1-1.1-.9-2.7.2-3.6 1-1 2.7-.9 3.6.2 5.9 6.6 12.1 13 18.4 19.3 1 1 1 2.6 0 3.6-.5.4-1.2.7-1.8.7zm-35.9-39.8c-.8 0-1.5-.3-2-1-5.6-7-11.1-14.3-16.3-21.5-.8-1.2-.6-2.8.6-3.6s2.8-.6 3.6.6c5.1 7.2 10.5 14.3 16.1 21.3.9 1.1.7 2.7-.4 3.6-.5.4-1.1.6-1.6.6zm-31.1-43.7c-.9 0-1.7-.4-2.2-1.2-.6-1-1.2-2-1.8-2.9-4.1-6.8-8.1-13.6-11.7-20.4-.7-1.2-.2-2.8 1-3.5s2.8-.2 3.5 1c3.6 6.7 7.5 13.5 11.6 20.1.6 1 1.2 1.9 1.8 2.9.7 1.2.4 2.8-.8 3.5-.4.4-.9.5-1.4.5zm-25.4-47.1c-1 0-1.9-.6-2.3-1.5-3.8-8.2-7.3-16.6-10.4-24.9-.5-1.3.2-2.8 1.5-3.3s2.8.2 3.3 1.5c3.1 8.2 6.6 16.4 10.3 24.5.6 1.3 0 2.8-1.3 3.4-.4.2-.8.3-1.1.3zm-18.9-50.1c-1.1 0-2.1-.7-2.5-1.8-2.6-8.7-4.8-17.5-6.6-26.2-.3-1.4.6-2.7 2-3s2.7.6 3 2c1.8 8.5 3.9 17.2 6.5 25.8.4 1.4-.4 2.8-1.7 3.2-.3-.1-.5 0-.7 0zm-10.8-52.5c-1.3 0-2.4-1-2.5-2.3-.9-7.6-1.5-15.4-1.8-23-.1-1.3-.1-2.7-.1-4 0-1.4 1.1-2.6 2.5-2.6h.1c1.4 0 2.5 1.1 2.6 2.5 0 1.3.1 2.6.1 3.9.3 7.5.9 15.1 1.8 22.6.2 1.4-.8 2.7-2.3 2.8-.2.1-.3.1-.4.1zm-1.2-53.5c-.1 0-.1 0-.2 0-1.4-.1-2.5-1.3-2.4-2.8.7-9 1.8-18 3.4-26.8.2-1.4 1.6-2.3 3-2.1s2.3 1.6 2.1 3c-1.5 8.7-2.6 17.5-3.3 26.3-.2 1.4-1.3 2.4-2.6 2.4zm9.3-52.7c-.2 0-.5 0-.7-.1-1.4-.4-2.2-1.8-1.8-3.2 2.5-8.7 5.4-17.3 8.7-25.6.5-1.3 2-2 3.3-1.4 1.3.5 2 2 1.4 3.3-3.3 8.2-6.1 16.6-8.6 25.1-.2 1.2-1.2 1.9-2.3 1.9zm19.9-49.7c-.4 0-.8-.1-1.2-.3-1.3-.7-1.7-2.2-1.1-3.5 1-1.9 2.1-3.9 3.2-5.9 3.3-5.9 6.9-11.7 10.7-17.4.8-1.2 2.4-1.5 3.6-.7s1.5 2.4.7 3.6c-3.7 5.5-7.2 11.2-10.5 17-1.1 1.9-2.1 3.8-3.1 5.7-.5 1-1.4 1.5-2.3 1.5zm29.7-44.4c-.6 0-1.2-.2-1.6-.6-1.1-.9-1.2-2.5-.3-3.6 5.7-6.9 11.9-13.6 18.3-19.9 1-1 2.6-1 3.6 0s1 2.6 0 3.6c-6.3 6.2-12.4 12.7-18 19.5-.5.7-1.2 1-2 1zm38.2-37.5c-.8 0-1.5-.3-2-1-.9-1.1-.7-2.7.4-3.6 7-5.6 14.4-10.9 22-15.8 1.2-.8 2.8-.4 3.5.8.8 1.2.4 2.8-.8 3.5-7.4 4.8-14.7 10-21.5 15.5-.4.4-1 .6-1.6.6zm45-28.9c-.9 0-1.8-.5-2.3-1.4-.6-1.3-.1-2.8 1.1-3.5 8-4.1 16.3-7.8 24.7-11 1.3-.5 2.8.1 3.3 1.5.5 1.3-.1 2.8-1.5 3.3-8.2 3.2-16.4 6.8-24.2 10.8-.3.2-.7.3-1.1.3zm49.9-19.3c-1.1 0-2.2-.7-2.5-1.9-.4-1.4.4-2.8 1.8-3.2 8.7-2.4 17.6-4.3 26.4-5.8 1.4-.2 2.7.7 3 2.1.2 1.4-.7 2.7-2.1 3-8.7 1.4-17.4 3.3-25.9 5.7-.2 0-.4.1-.7.1zm132.6-1.2c-.2 0-.4 0-.6-.1-8.6-2.2-17.3-3.9-26-5.2-1.4-.2-2.4-1.5-2.2-2.9s1.5-2.4 2.9-2.2c8.9 1.3 17.8 3.1 26.5 5.3 1.4.3 2.2 1.7 1.9 3.1-.4 1.2-1.4 2-2.5 2zm-79.8-7.6c-1.3 0-2.5-1-2.6-2.4s1-2.6 2.4-2.7c5.2-.3 10.5-.5 15.7-.5 3.8 0 7.6.1 11.3.2 1.4.1 2.5 1.3 2.5 2.7-.1 1.4-1.3 2.5-2.7 2.5-3.7-.2-7.4-.2-11.1-.2 0 0 0 0-.1 0-5.1 0-10.3.2-15.4.5.1-.1.1-.1 0-.1z" fill="#cfcfce"/></g><g><path d="m557.9 267c-.2 0-.4 0-.7-.1l-12.9-3.4c-1.4-.4-2.2-1.8-1.8-3.1.4-1.4 1.8-2.2 3.1-1.8l10.5 2.8 3-10.4c.4-1.4 1.8-2.2 3.2-1.8s2.2 1.8 1.8 3.2l-3.6 12.8c-.4 1-1.5 1.8-2.6 1.8z" fill="#cfcfce"/></g><g><path d="m1053.1 436.3c-.3 0-.6-.1-1-.2-1.3-.5-1.9-2-1.4-3.3 3.4-8.3 6.5-16.7 9.2-25 .4-1.3 1.9-2.1 3.2-1.6 1.3.4 2.1 1.9 1.6 3.2-2.8 8.4-5.9 16.9-9.3 25.3-.3 1-1.3 1.6-2.3 1.6zm16.9-50.9c-.2 0-.4 0-.6-.1-1.4-.4-2.2-1.8-1.8-3.1 2.2-8.7 4.1-17.4 5.6-26 .2-1.4 1.6-2.3 3-2.1s2.3 1.6 2.1 3c-1.5 8.7-3.5 17.6-5.7 26.4-.4 1.1-1.5 1.9-2.6 1.9zm9.3-52.8c-.1 0-.2 0-.2 0-1.4-.1-2.4-1.4-2.3-2.8.8-8.9 1.3-17.8 1.4-26.5 0-1.4 1.2-2.5 2.6-2.5 1.4 0 2.6 1.2 2.5 2.6-.1 8.9-.5 18-1.4 27-.2 1.2-1.3 2.2-2.6 2.2zm.3-53.5c-1.3 0-2.4-1-2.6-2.3-.8-8.9-2-17.7-3.6-26.3-.3-1.4.7-2.7 2.1-3s2.7.7 3 2.1c1.6 8.8 2.9 17.8 3.6 26.8.1 1.4-.9 2.7-2.3 2.8-.1-.1-.2-.1-.2-.1zm-510.7-50.7c-.2 0-.5 0-.7-.1-1.4-.4-2.1-1.8-1.7-3.2 2.6-8.7 5.6-17.3 8.9-25.6.5-1.3 2-2 3.3-1.4 1.3.5 2 2 1.4 3.3-3.3 8.1-6.2 16.6-8.7 25.1-.4 1.1-1.4 1.9-2.5 1.9zm500.8-1.9c-1.1 0-2.1-.7-2.5-1.8-2.5-8.5-5.5-16.9-8.8-25-.5-1.3.1-2.8 1.4-3.4 1.3-.5 2.8.1 3.4 1.4 3.4 8.3 6.4 16.9 9 25.5.4 1.4-.4 2.8-1.7 3.2-.3 0-.5.1-.8.1zm-480.8-47.8c-.4 0-.8-.1-1.2-.3-1.3-.7-1.7-2.2-1.1-3.5 4.2-8 8.8-15.9 13.7-23.3.8-1.2 2.4-1.5 3.6-.7s1.5 2.4.7 3.6c-4.8 7.3-9.4 15-13.5 22.9-.4.8-1.3 1.3-2.2 1.3zm460.4-1.7c-.9 0-1.8-.5-2.3-1.3-3.7-6.9-7.8-13.7-12.2-20.3-.5-.8-1.1-1.6-1.6-2.4-.8-1.2-.5-2.8.7-3.6s2.8-.5 3.6.7c.6.8 1.1 1.6 1.6 2.4 4.5 6.7 8.7 13.7 12.5 20.7.7 1.2.2 2.8-1 3.5-.5.2-.9.3-1.3.3zm-430.8-43c-.6 0-1.2-.2-1.6-.6-1.1-.9-1.2-2.5-.3-3.6 1.8-2.1 3.6-4.3 5.4-6.4 4.1-4.7 8.4-9.3 12.9-13.6 1-1 2.6-1 3.6 0s1 2.6 0 3.6c-4.3 4.2-8.6 8.7-12.6 13.3-1.8 2-3.6 4.1-5.3 6.3-.7.7-1.4 1-2.1 1zm400.6-1.2c-.7 0-1.4-.3-2-.9-5.7-6.7-11.8-13.2-18.2-19.3-1-1-1.1-2.6-.1-3.6s2.6-1.1 3.6-.1c6.5 6.2 12.8 12.9 18.6 19.7.9 1.1.8 2.7-.3 3.6-.5.4-1 .6-1.6.6zm-362.4-36.3c-.8 0-1.5-.3-2-1-.9-1.1-.7-2.7.4-3.6 7-5.6 14.5-10.8 22.1-15.7 1.2-.8 2.8-.4 3.5.8.8 1.2.4 2.8-.8 3.5-7.5 4.7-14.8 9.9-21.7 15.3-.4.5-1 .7-1.5.7zm323.7-.8c-.6 0-1.1-.2-1.6-.5-7-5.4-14.3-10.5-21.8-15.2-1.2-.8-1.6-2.3-.8-3.5s2.3-1.6 3.5-.8c7.6 4.8 15.1 10 22.2 15.5 1.1.9 1.3 2.5.5 3.6-.5.6-1.3.9-2 .9zm-278.5-27.8c-.9 0-1.9-.5-2.3-1.4-.6-1.3-.1-2.8 1.2-3.4 4.3-2.1 8.7-4.2 13.2-6.1 3.9-1.6 7.8-3.2 11.7-4.7 1.3-.5 2.8.2 3.3 1.5s-.2 2.8-1.5 3.3c-3.8 1.4-7.7 3-11.4 4.6-4.4 1.9-8.7 3.9-12.9 5.9-.5.2-.9.3-1.3.3zm233.1-.5c-.4 0-.8-.1-1.1-.3-7.9-3.9-16.1-7.4-24.4-10.5-1.3-.5-2-2-1.5-3.3s2-2 3.3-1.5c8.4 3.1 16.8 6.7 24.9 10.7 1.3.6 1.8 2.2 1.2 3.4-.6.9-1.5 1.5-2.4 1.5zm-182.9-18.2c-1.1 0-2.2-.8-2.5-1.9-.4-1.4.5-2.8 1.8-3.1 8.7-2.3 17.6-4.2 26.5-5.6 1.4-.2 2.7.7 2.9 2.1s-.7 2.7-2.1 2.9c-8.7 1.4-17.4 3.2-26 5.5-.2 0-.4.1-.6.1zm132.6-.4c-.2 0-.4 0-.6-.1-8.5-2.2-17.3-4-26-5.3-1.4-.2-2.4-1.5-2.2-2.9s1.5-2.4 2.9-2.2c8.9 1.4 17.8 3.2 26.5 5.4 1.4.4 2.2 1.8 1.8 3.1-.2 1.2-1.2 2-2.4 2zm-79.7-8c-1.4 0-2.5-1.1-2.6-2.4-.1-1.4 1-2.6 2.4-2.7 8.9-.5 18-.5 27.1-.1 1.4.1 2.5 1.3 2.4 2.7s-1.3 2.5-2.7 2.4c-8.9-.4-17.8-.4-26.5.1z" fill="#cfcfce"/></g><g><path d="m1049.7 479.1c-.4 0-.7-.1-1.1-.2l-12.1-5.6c-1.3-.6-1.8-2-1.3-3.3l5.1-12.3c.5-1.3 2-1.9 3.4-1.4 1.3.5 1.9 2 1.4 3.4l-4.2 10 9.9 4.5c1.3.6 1.9 2.1 1.3 3.4-.5.9-1.4 1.5-2.4 1.5z" fill="#cfcfce"/></g><g><path d="m946.7 1098.2c-.4 0-.8-.1-1.2-.3-1.2-.7-1.7-2.2-1-3.5l4.4-8.1c.3-.5.8-.9 1.3-1.2l12.8-5.1c1.2-.5 2.5-1 3.7-1.5 1.3-.5 2.8.1 3.3 1.4s-.1 2.8-1.4 3.3c-1.2.5-2.5 1-3.7 1.5l-12 4.7-3.9 7.3c-.5 1-1.4 1.5-2.3 1.5zm45.5-26c-.9 0-1.8-.5-2.3-1.4-.6-1.3-.1-2.8 1.1-3.4 7.8-4 15.7-8.3 23.5-13 1.2-.7 2.8-.3 3.5.9s.3 2.8-.9 3.5c-7.9 4.7-15.9 9.1-23.8 13.2-.4.2-.8.2-1.1.2zm46.3-27.7c-.8 0-1.6-.4-2.1-1.1-.8-1.2-.5-2.8.6-3.6 7.3-5 14.5-10.4 21.6-16 1.1-.9 2.7-.7 3.6.4s.7 2.7-.4 3.6c-7.1 5.6-14.5 11.1-21.8 16.2-.5.4-1 .5-1.5.5zm42.4-33.5c-.7 0-1.4-.3-1.9-.9-.9-1.1-.9-2.7.2-3.6 6.6-5.9 13.2-12.2 19.5-18.5 1-1 2.6-1 3.6 0s1 2.6 0 3.6c-6.4 6.4-13 12.7-19.7 18.7-.4.5-1.1.7-1.7.7zm38.1-38.3c-.6 0-1.2-.2-1.7-.6-1.1-.9-1.2-2.6-.2-3.6.9-1 1.8-2.1 2.8-3.1 5-5.7 9.8-11.6 14.5-17.5.9-1.1 2.5-1.3 3.6-.4s1.3 2.5.4 3.6c-4.7 6-9.6 11.9-14.6 17.7-.9 1.1-1.9 2.1-2.8 3.2-.5.4-1.2.7-2 .7zm33.4-42.5c-.5 0-1-.1-1.5-.5-1.2-.8-1.5-2.4-.6-3.6 5.1-7.4 10-14.9 14.6-22.5.7-1.2 2.3-1.6 3.5-.9s1.6 2.3.9 3.5c-4.7 7.7-9.7 15.3-14.8 22.8-.5.8-1.3 1.2-2.1 1.2zm28.1-46.2c-.4 0-.8-.1-1.2-.3-1.3-.7-1.7-2.2-1.1-3.5 4.2-7.9 8.1-16.1 11.7-24.2.6-1.3 2.1-1.9 3.4-1.3s1.9 2.1 1.3 3.4c-3.7 8.2-7.6 16.4-11.9 24.5-.4.9-1.3 1.4-2.2 1.4zm21.9-49.3c-.3 0-.6-.1-.9-.2-1.3-.5-2-2-1.5-3.3 3.1-8.4 5.9-17 8.4-25.5.4-1.4 1.8-2.1 3.2-1.7s2.1 1.8 1.7 3.2c-2.5 8.6-5.4 17.3-8.5 25.8-.3 1.1-1.3 1.7-2.4 1.7zm15.1-51.9c-.2 0-.4 0-.5-.1-1.4-.3-2.3-1.7-2-3l.4-1.7c1.7-8.2 3.1-16.5 4-24.7.2-1.4 1.4-2.4 2.8-2.3 1.4.2 2.4 1.4 2.3 2.8-1 8.4-2.3 16.8-4.1 25.2l-.4 1.7c-.2 1.3-1.3 2.1-2.5 2.1zm6.1-53.6c-1.4 0-2.6-1.2-2.6-2.6 0-.8 0-1.7 0-2.5 0-8.1-.4-16.2-1.1-24.2-.1-1.4.9-2.7 2.3-2.8s2.7.9 2.8 2.3c.8 8.2 1.2 16.5 1.2 24.7v2.5c0 1.5-1.2 2.6-2.6 2.6zm-5.1-53.7c-1.2 0-2.3-.8-2.5-2.1-1.7-8.7-4-17.4-6.6-25.9-.4-1.4.3-2.8 1.7-3.2s2.8.3 3.2 1.7c2.7 8.7 5 17.6 6.7 26.4.3 1.4-.6 2.7-2 3-.1.1-.3.1-.5.1zm-16-51.5c-1 0-1.9-.6-2.4-1.6-2.3-5.3-4.7-10.5-7.3-15.6-1.4-2.8-2.9-5.6-4.5-8.4-.7-1.2-.2-2.8 1-3.5s2.8-.2 3.5 1c1.6 2.8 3.1 5.7 4.6 8.5 2.7 5.2 5.2 10.6 7.5 15.9.6 1.3 0 2.8-1.3 3.4-.4.2-.8.3-1.1.3zm-26.3-47.2c-.8 0-1.6-.4-2.1-1.1-5.1-7.3-10.6-14.4-16.5-21.1-.9-1.1-.8-2.7.3-3.6s2.7-.8 3.6.3c5.9 6.9 11.6 14.1 16.8 21.5.8 1.2.5 2.8-.6 3.6-.4.3-.9.4-1.5.4zm-35.3-40.8c-.6 0-1.3-.2-1.8-.7-6.5-6.1-13.3-11.9-20.4-17.3-1.1-.9-1.3-2.5-.5-3.6.9-1.1 2.5-1.3 3.6-.5 7.2 5.5 14.2 11.4 20.8 17.7 1 1 1.1 2.6.1 3.6-.4.6-1.1.8-1.8.8zm-42.9-32.7c-.5 0-.9-.1-1.3-.4-7.6-4.7-15.5-9-23.5-12.8-1.3-.6-1.8-2.1-1.2-3.4s2.1-1.8 3.4-1.2c8.2 3.9 16.2 8.3 24 13 1.2.7 1.6 2.3.8 3.5-.5.8-1.3 1.3-2.2 1.3z" fill="#cfcfce"/></g><g><path d="m926.6 1142.1c-1 0-2-.6-2.4-1.6l-4.9-12.4c-.4-.9-.2-1.9.5-2.7l8.9-9.9c1-1.1 2.6-1.1 3.6-.2 1.1 1 1.1 2.6.2 3.6l-7.9 8.7 4.3 10.9c.5 1.3-.1 2.8-1.4 3.3-.3.3-.6.3-.9.3z" fill="#cfcfce"/></g><g><path d="m834.9 1380.9c-.2 0-.4 0-.6-.1-9-2-17.4-6.3-24.1-12.4-1.1-1-1.1-2.6-.2-3.6 1-1.1 2.6-1.1 3.6-.2 6.1 5.5 13.6 9.4 21.8 11.2 1.4.3 2.3 1.7 2 3.1-.2 1.2-1.3 2-2.5 2zm25.8-1.3c-1.1 0-2.1-.7-2.4-1.7-.5-1.3.3-2.8 1.6-3.3 5.5-1.9 10.6-4.8 15.2-8.8 1.8-1.5 3.4-3.2 4.9-5 .9-1.1 2.5-1.2 3.6-.3s1.2 2.5.3 3.6c-1.7 2-3.5 3.8-5.5 5.5-5.1 4.4-10.8 7.7-16.9 9.8-.3.2-.6.2-.8.2zm-62.2-32.4c-1.1 0-2.2-.8-2.5-1.9-1.2-4.4-1.8-9-1.8-13.8 0-.3 0-.6 0-.9.1-3.9.2-7.9.4-12.1.1-1.4 1.3-2.5 2.7-2.4s2.5 1.3 2.4 2.7c-.2 4.1-.3 8.1-.4 11.9v.8c0 4.3.5 8.5 1.6 12.5.4 1.4-.4 2.8-1.8 3.1-.1.1-.4.1-.6.1zm94.1-5.6c-.1 0-.3 0-.4 0-1.4-.2-2.4-1.5-2.1-2.9.4-2.2.5-4.5.6-6.8.1-6.1.4-12.6.9-19.1.1-1.4 1.3-2.5 2.8-2.3 1.4.1 2.5 1.4 2.3 2.8-.6 6.4-.9 12.7-.9 18.7 0 2.5-.2 5.1-.6 7.5-.3 1.2-1.3 2.1-2.6 2.1zm-93.1-46.3c-.1 0-.2 0-.3 0-1.4-.2-2.4-1.5-2.2-2.9 1.1-8.8 2.5-17.5 4.1-25.9.3-1.4 1.6-2.3 3-2s2.3 1.6 2 3c-1.6 8.3-3 16.9-4 25.6-.2 1.2-1.3 2.2-2.6 2.2zm98.2-5.6c-.2 0-.3 0-.5 0-1.4-.3-2.3-1.6-2-3 1.7-9 3.9-17.6 6.4-25.6.4-1.4 1.9-2.1 3.2-1.7 1.4.4 2.1 1.9 1.7 3.2-2.5 7.8-4.6 16.2-6.2 25-.3 1.3-1.4 2.1-2.6 2.1zm-88.1-45.6c-.2 0-.5 0-.7-.1-1.4-.4-2.2-1.8-1.8-3.2 2.4-8.6 5.2-17.1 8.3-25 .5-1.3 2-2 3.3-1.5s2 2 1.5 3.3c-3 7.8-5.7 16-8.1 24.5-.3 1.3-1.4 2-2.5 2zm104.2-3.8c-.4 0-.8-.1-1.2-.3-1.3-.7-1.7-2.2-1.1-3.5 1.5-2.9 3.1-5.7 4.7-8.2 3.1-4.8 5.7-9.7 8-14.4.6-1.3 2.1-1.8 3.4-1.2s1.8 2.1 1.2 3.4c-2.3 4.9-5.1 10-8.3 15-1.6 2.5-3.1 5.1-4.5 7.9-.3.8-1.2 1.3-2.2 1.3zm20.8-47.5c-.1 0-.3 0-.4 0-1.4-.2-2.3-1.6-2.1-3 .7-4.3 1.1-8.7 1.1-12.9 0-4.1-.3-8.2-1-12.2-.2-1.4.7-2.7 2.1-3 1.4-.2 2.7.7 3 2.1.7 4.3 1.1 8.7 1.1 13 0 4.5-.4 9.2-1.2 13.8-.3 1.3-1.4 2.2-2.6 2.2z" fill="#cfcfce"/></g></g><g><g><g fill="#c2b59b"><path d="m723.3 944.8c-2.2-.7-3.5-3-3-5.3 2.2-10.3 6.2-40.8-6.6-90.1-14.5-56 5-71.9 29.6-92.1 5-4.1 10.1-8.3 15.3-13 29.1-26.8 27.2-154.6 27.2-155.8v-1.6l9.1-.2v1.6c.1 5.4 1.9 133.1-30.1 162.7-5.4 5-10.6 9.2-15.7 13.4-23 18.8-39.6 32.4-26.6 82.7 13.3 51.4 9.2 82.9 6.7 94.4-.6 2.6-3.4 4.2-5.9 3.3z"/><path d="m699.5 1123.4c-1.7 1.9-4.7 2.1-6.5.3-41.1-38.3-38.6-75.5-36.3-111.6 1.5-23.8 3.1-48.3-8.5-72.9-6.8-14.4-14.7-25.5-23.4-33.1.4 1.9.7 3.7.8 5.4.7 9.6-2.8 17.3-10.1 21.9-4.2 2.7-9.5 4.1-15.2 4.1-5.8 0-11.7-1.5-16.7-4.4-8.3-4.7-13-12.6-12.7-21.5.4-12.2 9.2-22.1 21.9-24.8 2.2-.5 4.5-.7 6.9-.7 2.6 0 5.2.3 7.8.8-9-15.9-22.5-30.4-36.7-39.1-10.9-6.7-22-10.1-33.1-10.1-6.9 0-13.7 1.4-20.2 4l-1.5.6-3.4-8.4 1.5-.6c7.7-3.1 15.7-4.7 23.8-4.7 12.7 0 25.4 3.9 37.8 11.5 22 13.6 37.3 35.4 44.5 51.6 14 7.6 26.5 22.6 36.4 43.5 12.6 26.7 10.9 52.4 9.3 77.4-2.3 35.4-4.5 69 33.4 104.3 1.6 1.8 1.8 4.7.2 6.5zm-99.8-227.9c-1.7 0-3.5.2-5.1.5-8.6 1.8-14.4 8.1-14.6 16.1-.2 7.4 5 11.5 8.1 13.3 3.6 2 7.9 3.2 12.2 3.2 3.9 0 7.6-1 10.3-2.7 4.3-2.7 6.3-7.4 5.9-13.5-.3-4-1.5-8.7-3.6-13.9-4.5-2-8.9-3-13.2-3z"/><path d="m845.2 1335.9c-2.6.1-4.7-2-4.7-4.6.3-17.8 3.3-82.4 33.4-129.9 18-28.3 5.9-39.5-10.7-55.1-12.7-11.8-27-25.3-27.8-48.4-.5-16 3.9-28.5 13.2-37.1 11.4-10.6 27-12.2 35.2-12.2 2.8 0 4.7.2 4.9.2l1.6.2-1 9-1.6-.2c-.1 0-1.5-.1-3.7-.1-7 0-20.1 1.3-29.3 9.7-7.2 6.7-10.7 16.8-10.3 30.1.6 19.4 12.9 30.9 24.9 42.1 16 15 34.2 32 12.2 66.6-29.2 46-31.9 108.3-32 125.1.1 2.6-1.9 4.5-4.3 4.6z"/></g><g><path d="m844.8 83.5c-119.9-14.1-228.5 71.6-242.6 191.5-20.3 172.4 94.5 328.9 177.5 361.5 88.2-12.4 236.3-137.9 256.7-310.3 14-119.9-71.7-228.5-191.6-242.7z" fill="#fccf07"/><path d="m844.8 83.5c-83.8-9.9-162.1 29.1-206.5 94.4 42-28.6 94-42.7 148.4-36.3 119.9 14.1 205.6 122.8 191.5 242.7-9 76.2-43 143.3-85.7 195.4 67.4-54.8 131-144.8 143.8-253.5 14.1-119.9-71.6-228.5-191.5-242.7z" fill="#e9bf1e"/><path d="m693 200.8s-87.9 38-56.7 176.6 148.4 225.7 148.4 225.7 132-97.3 110.2-299.2c-12.9-119.4-144.3-139.5-201.9-103.1z" fill="#feda3f"/></g><g><path d="m668.6 461.7c-25.8-117.9-142.3-192.5-260.3-166.7-117.9 25.9-192.5 142.4-166.7 260.3 35.6 162.3 183.4 270.3 274.1 282.5-1.6 9.8-3.4 27.5 4.4 29.3 10.9 2.4 31.7-4.1 35.1-12.6 2.3-5.9-8.3-16.7-15.1-22.9 76.7-50.7 163.8-209.1 128.5-369.9z" fill="#66c2c6"/><g><path d="m668.6 461.7c-25.8-117.9-142.3-192.5-260.3-166.7-56.4 12.4-102.9 45.6-133.2 89.7 22.6-15.5 48.4-27 76.8-33.2 117.9-25.9 234.5 48.8 260.3 166.7 26.3 119.9-15.5 238.5-70.2 312 76.2-51.9 161.6-209 126.6-368.5z" fill="#53afaf"/></g></g><path d="m1006.5 510.6c-118.1-24.9-234.1 50.6-259 168.8-33.8 160.1 53.4 317 130.2 367.9-5.8 7.8-16.1 23.5-9.7 28.8 8.7 7.1 30.1 10.7 37 4.5 4.6-4.1.5-17.5-2.8-26.2 90.5-12.1 238.6-121.5 273-284.8 24.9-118.2-50.6-234.1-168.7-259z" fill="#ee347f"/><path d="m1006.5 510.6c-36.1-7.6-72-5.8-105.2 3.7 109.5 31.1 161.9 139.9 154 255.3-9.3 135.7-101.5 245.3-166.9 283.9 1 2.6-7.5 5.7-19.9 8.9-2.6 5.7-3.7 11-.4 13.7 8.7 7.1 30.1 10.7 37 4.5 4.6-4.1.5-17.5-2.8-26.2 90.5-12.1 238.6-121.5 273-284.8 24.8-118.2-50.7-234.1-168.8-259z" fill="#df1d77"/><path d="m290.7 410s-67.8 83.3 0 208.2 204.3 176.5 204.3 176.5 93-140.8 44.9-294.7c-35.7-114.7-203.7-140.8-249.2-90z" fill="#83d0d4"/><path d="m853.2 572.3s-97.5 44.9-91.6 186.9 105.7 248.5 105.7 248.5 111.9-94.2 136.6-253.5c18.3-118.8-87.5-207.4-150.7-181.9z" fill="#ef519c"/><g fill="#fff"><g><ellipse cx="337.6" cy="458.1" rx="50" ry="41.1" transform="matrix(.675 -.738 .738 .675 -228.272 397.913)"/><ellipse cx="386.5" cy="515.2" rx="22.8" ry="18.7" transform="matrix(.675 -.738 .738 .675 -254.532 452.572)"/></g><g><ellipse cx="725" cy="248" rx="50" ry="41.1" transform="matrix(.89 -.456 .456 .89 -33.36 357.685)"/><ellipse cx="750.9" cy="318.6" rx="22.8" ry="18.7" transform="matrix(.89 -.456 .456 .89 -62.7 377.248)"/></g><g><ellipse cx="865.5" cy="650.4" rx="40.4" ry="33.2" transform="matrix(.929 -.37 .37 .929 -179.256 366.54)"/><ellipse cx="882.8" cy="713.8" rx="18.4" ry="15.1" transform="matrix(.929 -.37 .37 .929 -201.496 377.457)"/></g></g></g></g></g></svg>