<svg height="512" viewBox="0 0 512 512" width="512" xmlns="http://www.w3.org/2000/svg" xmlns:xlink="http://www.w3.org/1999/xlink"><clipPath id="clip-path"><path d="m274.07 364.66h-87.19l-7.71-129.16a30.36 30.36 0 0 1 30.31-32.16h45.23a27.31 27.31 0 0 1 27.29 28.93z"/></clipPath><g id="Dog_House" data-name="Dog House"><path d="m215.23 87.4-78.23 63.79-16.18 11.09.81 9.23 32.82 2.74 92.07-70.4z" fill="#cc3745"/><path d="m132.17 385.37-35.16 8.01-17.27-100 24.69-5.63z" fill="#6d5fde"/><path d="m139.3 385.37-35.16 8.01-17.28-100 24.69-5.63z" fill="#917eec"/><path d="m409.12 364.66h-115.47l1.54-191.41h135.6z" fill="#d7981a"/><path d="m308.49 364.66h-148l-21.66-191.41 93-69.4 80.8 69.4q-2.07 95.75-4.14 191.41z" fill="#efbd42"/><path d="m121.62 171.51 95.75-78.36 101.13 92 133.15 4.28-83.55-92-155.51-16.94-105.1 83.26z" fill="#e73f46"/><path d="m318.5 185.15-2.45 14.17 133.19 4.02 2.4-13.91z" fill="#cc3745"/><path d="m206.13 95.83 109.92 103.49 5.62-18.45-101.63-93.47z" fill="#e73f46"/><path d="m212.59 80.49 103.46 102.44-90.33-101.01z" fill="#cc3745"/><path d="m274.07 364.66h-87.19l-7.71-129.16a30.36 30.36 0 0 1 30.31-32.16h45.23a27.31 27.31 0 0 1 27.29 28.93z" fill="#d7981a"/><path d="m260.89 123.71 57.37 2-52.75 4.41z" fill="#cc3745"/><path d="m276.94 141.36 44.73-2.61-42.1 6.12z" fill="#cc3745"/><path d="m235.02 96.63 79.83 5.81h-76.02z" fill="#cc3745"/><path d="m335 365.66a1 1 0 0 1 -1-1.05c0-.33 1.74-32.87 12.38-54.21 10-20 6-41.86 1.11-51-4.39-8.24 4.86-57.08 5.26-59.16a1 1 0 0 1 2 .38c-2.66 13.94-8.83 51.52-5.45 57.84 5 9.46 9.21 32.16-1.09 52.8-10.45 21-12.15 53.1-12.17 53.42a1 1 0 0 1 -1.04.98z" fill="#efbd42"/><path d="m372 365.66a1 1 0 0 1 -.9-1.45c.16-.3 15.05-30.14 11.82-45.13-3.41-15.81-.09-12.76 5.76-36.76 5.77-23.69 0-80.11 0-80.68a1 1 0 1 1 2-.2c.24 2.33 5.84 57.33 0 81.36s-9 20.69-5.74 35.86c3.38 15.67-11.36 45.2-12 46.45a1 1 0 0 1 -.94.55z" fill="#efbd42"/><path d="m179.12 365.66a1 1 0 0 1 -1-1c0-.29.47-29.07-4.88-51.15-5.51-22.71-2.56-50.51-13.24-78.9-5.6-14.88-5.31-35.32-4.08-49.85a244.36 244.36 0 0 1 4-28.21 1 1 0 1 1 1.95.43c-.1.49-10.53 49.08 0 76.92 10.76 28.55 7.92 56.83 13.33 79.12s4.94 51.37 4.94 51.66a1 1 0 0 1 -1.02.98z" fill="#d7981a"/><path d="m209.48 204.34a1 1 0 0 1 -1-1.16c0-.22 3.49-22.43-3.29-40.68a225.36 225.36 0 0 1 -9.57-32.19 1 1 0 0 1 2-.38 226.51 226.51 0 0 0 9.48 31.87c7 18.75 3.43 41.47 3.39 41.7a1 1 0 0 1 -1.01.84z" fill="#d7981a"/><g clip-path="url(#clip-path)"><path d="m284.84 364.66h-87.19l-7.71-129.16a30.36 30.36 0 0 1 30.31-32.16h45.23a27.31 27.31 0 0 1 27.26 28.93z" fill="#2d1929"/></g><path d="m254.71 204.34a1 1 0 0 1 -1-1.16 112.6 112.6 0 0 0 -1.23-36.25c-4-19.5-1.83-28.08-1.74-28.44a1 1 0 0 1 1.23-.71 1 1 0 0 1 .71 1.22c0 .09-2.14 8.58 1.76 27.53a114.56 114.56 0 0 1 1.24 37 1 1 0 0 1 -.97.81z" fill="#d7981a"/><path d="m289.58 365.66a1 1 0 0 1 -.89-1.46c.07-.14 6.92-13.61-.06-33.77-7.33-21.17 5.56-43.65-.05-89.26-5.57-45.41-.2-66.17 0-67a1 1 0 0 1 1.23-.7 1 1 0 0 1 .7 1.22c-.05.21-5.49 21.32 0 66.27 5.62 45.73-7.14 68.36-.05 88.86a53.79 53.79 0 0 1 2.75 25.57 32.82 32.82 0 0 1 -2.81 9.78 1 1 0 0 1 -.82.49z" fill="#d7981a"/><path d="m62 395.76s58.89-33 163.74-41.25 183.69-5.49 211.2 23.38 40.33 19.71 44 35.29-118.26-6.42-142.09 0 10.16 18.33-67.34 18.33-58.71-13.75-87.82-18.33-42.88 12.82-87.79 11.45-57.85-18.09-33.9-28.87z" fill="#86ebf9"/><path d="m192.71 363.33-31.26 1.8s5.5-18.79 1.6-21.54-12.38 15.12-12.38 15.12-13.75-12.83-24.06-8 10.31 16 10.31 16-33.92-4.58-36.89 3 13.75 9.17 13.75 9.17-23 8.48-28.09 14.21 18.23 5.27 18.23 5.27z" fill="#86ebf9"/><path d="m350.56 351.75s35.48-.91 48.92 3.07-9.6-14.79 0-16.51 16.52 17.06 16.52 17.06 12.84-14.31 22.31-12.17-10.71 15-10.71 15 11-4.28 18.05 2.14-9.17 7.63-9.17 7.63 14.05 7 16.19 15.28-7.67 7.75-7.67 7.75l-74.55-26.4z" fill="#86ebf9"/><g fill="#40c2d6"><ellipse cx="272.96" cy="409.28" rx="9.06" ry="2.98"/><ellipse cx="301.34" cy="419.83" rx="7.69" ry="2.52"/><ellipse cx="328.36" cy="400.5" rx="6.69" ry="2.13"/><ellipse cx="440.93" cy="409.28" rx="8.94" ry="4.01"/><ellipse cx="399.9" cy="399.2" rx="7.68" ry="3.44"/><ellipse cx="440.93" cy="393.38" rx="5.84" ry="2.39"/><ellipse cx="81.69" cy="402.34" rx="9.32" ry="3.97"/><ellipse cx="109.95" cy="413.29" rx="8.25" ry="4.01"/><ellipse cx="122.63" cy="391.18" rx="12.68" ry="4.58"/><ellipse cx="159.27" cy="403.4" rx="8.37" ry="2.9"/></g><path d="m152.44 307.36a236.43 236.43 0 0 0 -101.67 32.9l-19.77-61.12a412.89 412.89 0 0 1 101.67-32.89l31.68 19.69z" fill="#6d5fde"/><path d="m158.45 299a236.43 236.43 0 0 0 -101.67 32.9l-19.78-61.17a413 413 0 0 1 101.66-32.89l31.69 19.69z" fill="#917eec"/><path d="m31 279.14 6.01-8.41 19.77 61.12-19.77-43.4z" fill="#6d5fde"/><path d="m158.45 299-6 8.41-5.69-2.7 5.13-5.05a25.88 25.88 0 0 1 6.56-.66z" fill="#6d5fde"/><path d="m92.08 320.62 29.79 3.38-3.36-11.81s-17.69 4.81-26.43 8.43z" fill="#6d5fde"/><circle cx="69.28" cy="281.24" fill="#fff" r="9.11"/><circle cx="76.33" cy="295.02" fill="#fff" r="9.11"/><circle cx="117.03" cy="263.84" fill="#fff" r="9.11"/><circle cx="124.09" cy="277.62" fill="#fff" r="9.11"/><path d="m71.04 272.51h51.16v11.32h-51.16z" fill="#fff" transform="matrix(.941 -.338 .338 .941 -88.23 48.94)"/><path d="m37.01 281.24 19.77-8.29-16.85 12.97z" fill="#6d5fde"/><path d="m51 324s16.78-11.94 34-15.45c0 0-26.29 14.11-31.31 19.57z" fill="#6d5fde"/><path d="m170.36 257.53-21.05 9.42 19.7-4.71z" fill="#6d5fde"/><path d="m138.83 173.25 83.73-49.54 38.33 23.68-38.65-36.4z" fill="#d7981a"/></g></svg>