<svg id="Layer_5" enable-background="new 0 0 62 63" height="512" viewBox="0 0 62 63" width="512" xmlns="http://www.w3.org/2000/svg"><g><path d="m44.796 39 .482-2.088c7.396-2.601 12.722-9.638 12.722-17.912 0-10.477-8.523-19-19-19s-19 8.523-19 19c0 8.274 5.326 15.311 12.723 17.912l.481 2.088h-15.871l-8.333-6.25-9 6.75v23.5l9-6.75 7.667 5.75h45.333v-23zm-9.22 10.276c.37 1.604 1.778 2.724 3.424 2.724s3.054-1.12 3.424-2.724l.225-.975c3.627.599 5.351 1.919 5.351 2.699 0 1.223-3.506 3-9 3s-9-1.777-9-3c0-.78 1.724-2.1 5.351-2.699zm4.899-.449c-.073.316-.248.581-.475.783v-11.66c1.05-.055 2.079-.182 3.078-.401zm-18.475-29.827c0-9.374 7.626-17 17-17s17 7.626 17 17-7.626 17-17 17-17-7.626-17-17zm16 18.949v11.66c-.227-.203-.402-.467-.475-.783l-2.603-11.279c.999.22 2.028.347 3.078.402zm-28-1.949 6 4.5v18.5l-6-4.5zm-8 4.5 6-4.5v18.5l-6 4.5zm58 19.5h-42v-19h15.666l1.232 5.339c-4.225.721-6.898 2.497-6.898 4.661 0 3.248 5.667 5 11 5s11-1.752 11-5c0-2.164-2.673-3.94-6.898-4.661l1.232-5.339h15.666z"/><path d="m54 19c0-8.271-6.729-15-15-15s-15 6.729-15 15 6.729 15 15 15 15-6.729 15-15zm-18.551 12.495 1.65-2.682 4.681 2.88c-.897.197-1.825.307-2.78.307-1.232 0-2.421-.184-3.551-.505zm-9.449-12.495c0-.558.047-1.103.115-1.643l9.673 5.953 9.609-15.614c.583.331 1.137.706 1.659 1.12l-3.797 6.169 8.673 5.337c-.073.72-.219 1.418-.405 2.099l-9.316-5.733-4.721 7.671 8.787 5.407c-.632.429-1.308.796-2.013 1.11l-7.822-4.813-2.904 4.719c-.608-.283-1.197-.602-1.75-.972l2.952-4.796-8.708-5.358c-.01-.219-.032-.435-.032-.656zm21.923 9.43-7.679-4.726 2.624-4.264 7.97 4.904c-.702 1.548-1.697 2.932-2.915 4.086zm4.025-10.446-5.937-3.654 2.536-4.122c1.921 2.083 3.169 4.786 3.401 7.776zm-12.948-11.984c1.611 0 3.148.308 4.573.846l-8.439 13.712-8.584-5.282c1.605-5.358 6.576-9.276 12.45-9.276zm-12.573 16.245 5.563 3.423-1.775 2.885c-1.817-1.671-3.152-3.847-3.788-6.308z"/></g></svg>