<svg id="Layer_5" enable-background="new 0 0 62 62" height="512" viewBox="0 0 62 62" width="512" xmlns="http://www.w3.org/2000/svg"><g><path d="m53 28c-3.113 0-5.862 1.59-7.478 4h-23.581c-.5-4.493-4.317-8-8.941-8s-8.442 3.507-8.941 8h-4.059v30h62v-25c0-4.963-4.038-9-9-9zm0 2c3.86 0 7 3.141 7 7s-3.14 7-7 7-7-3.141-7-7 3.14-7 7-7zm7 26h-33.719l.398-1.594c.09-.358.368-.638.728-.728l1.671-.417c1.077-.27 1.914-1.105 2.183-2.184l.33-1.32c.112-.445.511-.757.971-.757h2.203c1.144 0 2.171-.636 2.683-1.658l.895-1.789c.169-.341.512-.553.893-.553h1.159c.198 0 .39.059.555.168l4.993 3.328c.495.33 1.07.504 1.664.504h1.73l1.365 3.443c.377.946 1.28 1.557 2.298 1.557s1.921-.611 2.303-1.564l1.035-2.649 3.662 1.831zm-6.557-4.301c-.146.365-.742.361-.885.004l-2.454-6.19c.911.311 1.882.487 2.896.487.999 0 1.957-.17 2.856-.472zm-6.09-7.701 1.19 3.002h-.937c-.198 0-.39-.059-.555-.168l-4.993-3.328c-.495-.33-1.07-.504-1.663-.504h-1.159c-1.144 0-2.171.636-2.683 1.658l-.895 1.789c-.17.341-.513.553-.894.553h-2.203c-1.379 0-2.576.935-2.911 2.272l-.33 1.321c-.09.358-.368.638-.728.728l-1.671.417c-1.077.27-1.914 1.105-2.183 2.184l-.519 2.078h-22.219v-10.234l2.514 1.508c.299.18.486.509.486.859v1.631c0 1.144.635 2.172 1.658 2.684l2.473 1.236c.414.207.878.316 1.341.316h5.458c1.005 0 1.938-.499 2.496-1.336l2.947-4.42c.148-.223.373-.373.636-.426l1.966-.394c.844-.169 1.575-.692 2.007-1.437.431-.743.523-1.638.251-2.454l-.801-2.401c-.142-.427.02-.898.394-1.148l.838-.559c.836-.557 1.336-1.49 1.336-2.495v-2.93h16.525c-.334.94-.525 1.947-.525 3 0 2.825 1.31 5.346 3.353 6.998zm-34.353-17.998c3.86 0 7 3.141 7 7s-3.14 7-7 7-7-3.141-7-7 3.14-7 7-7zm2.856 15.528-2.413 6.172c-.146.365-.742.361-.885.004l-2.454-6.19c.911.31 1.882.486 2.896.486.999 0 1.957-.17 2.856-.472zm-11.797-7.528c.269 2.416 1.496 4.544 3.294 5.998l3.348 8.446c.378.945 1.281 1.556 2.299 1.556s1.921-.611 2.303-1.564l3.279-8.389c1.832-1.454 3.087-3.602 3.359-6.047h4.059v2.93c0 .335-.167.646-.445.832l-.839.559c-1.122.749-1.608 2.166-1.182 3.445l.801 2.401c.092.275.062.566-.083.817-.146.252-.384.422-.669.479l-1.964.394c-.775.154-1.471.62-1.909 1.277l-2.947 4.42c-.187.28-.498.446-.833.446h-5.458c-.154 0-.31-.036-.447-.105l-2.472-1.236c-.341-.172-.553-.514-.553-.895v-1.631c0-1.047-.558-2.033-1.457-2.573l-3.543-2.126v-9.434zm-2.059 26v-2h58v2zm58-10.618-2.931-1.466 1.513-3.869c.522-.415.999-.884 1.418-1.402z"/><path d="m53 42c2.757 0 5-2.243 5-5s-2.243-5-5-5-5 2.243-5 5 2.243 5 5 5zm0-8c1.654 0 3 1.346 3 3s-1.346 3-3 3-3-1.346-3-3 1.346-3 3-3z"/><path d="m13 38c2.757 0 5-2.243 5-5s-2.243-5-5-5-5 2.243-5 5 2.243 5 5 5zm0-8c1.654 0 3 1.346 3 3s-1.346 3-3 3-3-1.346-3-3 1.346-3 3-3z"/><path d="m31 10c1.654 0 3-1.346 3-3s-1.346-3-3-3-3 1.346-3 3 1.346 3 3 3zm0-4c.551 0 1 .448 1 1s-.449 1-1 1-1-.448-1-1 .449-1 1-1z"/><path d="m33.122 23.121-1.415-1.414c-.377.379-1.036.379-1.413 0l-1.415 1.414c.566.567 1.32.879 2.121.879s1.555-.312 2.122-.879z"/><path d="m26.05 25.949c1.323 1.322 3.08 2.051 4.95 2.051s3.627-.729 4.95-2.051l-1.414-1.414c-.945.944-2.201 1.465-3.536 1.465s-2.591-.521-3.536-1.465z"/><path d="m22 10h2.685c.335.701.778 1.34 1.315 1.889v6.111h4v2h2v-2h4v-6.111c.537-.549.98-1.188 1.315-1.889h2.685v2h20v-10h-20v2h-2.685c-1.126-2.361-3.53-4-6.315-4s-5.189 1.639-6.315 4h-2.685v-2h-20v10h20zm6 6v-2.685c.911.434 1.925.685 3 .685s2.089-.251 3-.685v2.685zm14-8h4v2h-4zm10 0v2h-4v-2zm-4-2v-2h4v2zm6 4v-2h4v2zm4-4h-4v-2h4zm-12-2v2h-4v-2zm-6 2v2h-2.08c.047-.328.08-.66.08-1s-.033-.672-.08-1zm-9-4c2.757 0 5 2.243 5 5s-2.243 5-5 5-5-2.243-5-5 2.243-5 5-5zm-6.92 4c-.047.328-.08.66-.08 1s.033.672.08 1h-2.08v-2zm-4.08 0h-4v-2h4zm-10 0v-2h4v2zm4 2v2h-4v-2zm-6-4v2h-4v-2zm-4 4h4v2h-4zm12 2v-2h4v2z"/></g></svg>