<svg id="Layer_5" enable-background="new 0 0 62 62.766" height="512" viewBox="0 0 62 62.766" width="512" xmlns="http://www.w3.org/2000/svg"><g><path d="m60.657 6.394-10.657-6.394v3.766h-15.343c-1.335 0-2.591.52-3.535 1.464l-.122.122-.122-.122c-.944-.944-2.2-1.464-3.535-1.464h-15.343v-3.766l-10.657 6.394c-.828.498-1.343 1.406-1.343 2.372s.515 1.875 1.343 2.372l10.657 6.394v-3.766h11c1.654 0 3 1.346 3 3v10.721c-7.498 2.174-13 9.09-13 17.279 0 9.925 8.075 18 18 18s18-8.075 18-18c0-8.189-5.502-15.105-13-17.279v-10.721c0-1.654 1.346-3 3-3h11v3.766l10.657-6.394c.828-.497 1.343-1.406 1.343-2.372s-.515-1.874-1.343-2.372zm-13.657 38.372c0 8.822-7.178 16-16 16s-16-7.178-16-16 7.178-16 16-16 16 7.178 16 16zm12.628-35.343-7.628 4.577v-2.234h-13c-2.757 0-5 2.243-5 5v10.271c-.978-.165-1.976-.271-3-.271s-2.022.106-3 .271v-10.271c0-2.757-2.243-5-5-5h-13v2.234l-7.628-4.577c-.229-.137-.372-.389-.372-.657s.143-.52.372-.657l7.628-4.577v2.234h17.343c.79 0 1.563.32 2.121.878l1.536 1.536 1.536-1.536c.559-.558 1.332-.878 2.121-.878h17.343v-2.234l7.628 4.577c.229.138.372.39.372.657s-.143.52-.372.657z"/><path d="m28.538 32.383-.31.725c-5.376 1.271-9.228 6.082-9.228 11.658 0 2.139.576 4.221 1.659 6.062l-.452 1.059c-.138.323-.207.663-.207 1.011v.269c0 1.433 1.176 2.599 2.622 2.599.623 0 1.227-.22 1.701-.621l.285-.241c1.92 1.218 4.113 1.862 6.392 1.862s4.471-.644 6.392-1.862l.285.241c.474.4 1.078.621 1.701.621 1.446 0 2.622-1.166 2.622-2.599v-.269c0-.348-.069-.688-.208-1.013l-.451-1.057c1.083-1.84 1.659-3.923 1.659-6.062 0-5.576-3.852-10.387-9.228-11.659l-.31-.725c-.42-.982-1.386-1.616-2.462-1.616s-2.042.634-2.462 1.617zm-7.538 12.383c0-4.11 2.513-7.722 6.193-9.235l-5.488 12.848c-.449-1.149-.705-2.366-.705-3.613zm10 10c-1.684 0-3.31-.426-4.773-1.229l4.773-4.033 4.773 4.033c-1.464.803-3.089 1.229-4.773 1.229zm10-10c0 1.247-.256 2.464-.705 3.613l-5.488-12.848c3.68 1.513 6.193 5.125 6.193 9.235zm-9.377-11.598 8.33 19.5c.031.075.047.152.047.23v.269c0 .476-.663.763-1.032.451l-6.968-5.887v-5.965h-2v5.965l-6.967 5.887c-.371.315-1.033.026-1.033-.451v-.269c0-.078.016-.156.046-.228l8.331-19.502c.209-.489 1.037-.489 1.246 0z"/></g></svg>